<mxfile host="app.diagrams.net" modified="2023-05-21T09:23:24.449Z" agent="Mozilla/5.0 (X11; Linux x86_64) AppleWebKit/537.36 (KHTML, like Gecko) Chrome/113.0.0.0 Safari/537.36" etag="e-M3ITI310rVf5-MpEVr" version="21.3.2" type="device">
  <diagram name="Page-1" id="LFJJOstLclUu6cNLXa0m">
    <mxGraphModel dx="1083" dy="643" grid="1" gridSize="10" guides="1" tooltips="1" connect="1" arrows="1" fold="1" page="1" pageScale="1" pageWidth="827" pageHeight="1169" math="0" shadow="0">
      <root>
        <mxCell id="0" />
        <mxCell id="1" parent="0" />
        <mxCell id="l05srn6kolW0LHhcBCei-1" value="&lt;font style=&quot;font-size: 24px;&quot;&gt;Internet&lt;/font&gt;" style="ellipse;shape=cloud;whiteSpace=wrap;html=1;" parent="1" vertex="1">
          <mxGeometry x="70" y="30" width="260" height="100" as="geometry" />
        </mxCell>
        <mxCell id="l05srn6kolW0LHhcBCei-3" value="&lt;b&gt;knot-oops&lt;/b&gt;&lt;br&gt;Secondary&lt;br&gt;Knot DNS" style="whiteSpace=wrap;html=1;aspect=fixed;" parent="1" vertex="1">
          <mxGeometry x="80" y="190" width="80" height="80" as="geometry" />
        </mxCell>
        <mxCell id="l05srn6kolW0LHhcBCei-4" value="&lt;b&gt;nsd.oops&lt;/b&gt;&lt;br&gt;Secondary&lt;br&gt;NSD DNS" style="whiteSpace=wrap;html=1;aspect=fixed;" parent="1" vertex="1">
          <mxGeometry x="240" y="190" width="80" height="80" as="geometry" />
        </mxCell>
        <mxCell id="l05srn6kolW0LHhcBCei-5" value="&lt;b&gt;bind-notify-oops&lt;/b&gt;&lt;br&gt;Secondary&lt;br&gt;BIND DNS" style="whiteSpace=wrap;html=1;aspect=fixed;" parent="1" vertex="1">
          <mxGeometry x="400" y="190" width="80" height="80" as="geometry" />
        </mxCell>
        <mxCell id="l05srn6kolW0LHhcBCei-8" value="notify_zones_updated.py" style="text;whiteSpace=wrap;html=1;" parent="1" vertex="1">
          <mxGeometry x="50" y="270" width="170" height="40" as="geometry" />
        </mxCell>
        <mxCell id="l05srn6kolW0LHhcBCei-9" value="&lt;b&gt;master&lt;/b&gt;&lt;br&gt;Primary&lt;br&gt;BIND DNS" style="whiteSpace=wrap;html=1;aspect=fixed;" parent="1" vertex="1">
          <mxGeometry x="400" y="40" width="80" height="80" as="geometry" />
        </mxCell>
        <mxCell id="l05srn6kolW0LHhcBCei-10" value="&lt;div style=&quot;text-align: center;&quot;&gt;&lt;b&gt;&lt;span style=&quot;background-color: initial;&quot;&gt;Anycast&amp;nbsp;&lt;/span&gt;198.51.100.53&amp;nbsp;&amp;nbsp;&lt;span style=&quot;background-color: initial;&quot;&gt;2001:db8:1::53&lt;/span&gt;&lt;/b&gt;&lt;/div&gt;&lt;div style=&quot;text-align: center;&quot;&gt;&lt;span style=&quot;background-color: initial;&quot;&gt;Announced with BGP&lt;/span&gt;&lt;/div&gt;&lt;div style=&quot;text-align: center;&quot;&gt;&lt;span style=&quot;background-color: initial;&quot;&gt;&lt;div&gt;&amp;nbsp; &amp;nbsp;&amp;nbsp;&lt;/div&gt;&lt;/span&gt;&lt;/div&gt;" style="text;whiteSpace=wrap;html=1;" parent="1" vertex="1">
          <mxGeometry x="160" y="140" width="230" height="40" as="geometry" />
        </mxCell>
      </root>
    </mxGraphModel>
  </diagram>
</mxfile>
